<svg id="visual" viewBox="0 0 900 600" width="900" height="600" xmlns="http://www.w3.org/2000/svg" xmlns:xlink="http://www.w3.org/1999/xlink" version="1.1"><rect x="0" y="0" width="900" height="600" fill="#001122"></rect><defs><linearGradient id="grad1_0" x1="33.3%" y1="0%" x2="100%" y2="100%"><stop offset="20%" stop-color="#ff0066" stop-opacity="1"></stop><stop offset="80%" stop-color="#ff0066" stop-opacity="1"></stop></linearGradient></defs><defs><linearGradient id="grad1_1" x1="33.3%" y1="0%" x2="100%" y2="100%"><stop offset="20%" stop-color="#ff0066" stop-opacity="1"></stop><stop offset="80%" stop-color="#9d257e" stop-opacity="1"></stop></linearGradient></defs><defs><linearGradient id="grad1_2" x1="33.3%" y1="0%" x2="100%" y2="100%"><stop offset="20%" stop-color="#372a61" stop-opacity="1"></stop><stop offset="80%" stop-color="#9d257e" stop-opacity="1"></stop></linearGradient></defs><defs><linearGradient id="grad1_3" x1="33.3%" y1="0%" x2="100%" y2="100%"><stop offset="20%" stop-color="#372a61" stop-opacity="1"></stop><stop offset="80%" stop-color="#001122" stop-opacity="1"></stop></linearGradient></defs><defs><linearGradient id="grad2_0" x1="0%" y1="0%" x2="66.7%" y2="100%"><stop offset="20%" stop-color="#ff0066" stop-opacity="1"></stop><stop offset="80%" stop-color="#ff0066" stop-opacity="1"></stop></linearGradient></defs><defs><linearGradient id="grad2_1" x1="0%" y1="0%" x2="66.7%" y2="100%"><stop offset="20%" stop-color="#9d257e" stop-opacity="1"></stop><stop offset="80%" stop-color="#ff0066" stop-opacity="1"></stop></linearGradient></defs><defs><linearGradient id="grad2_2" x1="0%" y1="0%" x2="66.7%" y2="100%"><stop offset="20%" stop-color="#9d257e" stop-opacity="1"></stop><stop offset="80%" stop-color="#372a61" stop-opacity="1"></stop></linearGradient></defs><defs><linearGradient id="grad2_3" x1="0%" y1="0%" x2="66.7%" y2="100%"><stop offset="20%" stop-color="#001122" stop-opacity="1"></stop><stop offset="80%" stop-color="#372a61" stop-opacity="1"></stop></linearGradient></defs><g transform="translate(900, 0)"><path d="M0 432.7C-78.3 422.9 -156.7 413.1 -216.3 374.7C-276 336.3 -316.9 269.2 -349.9 202C-382.8 134.8 -407.7 67.4 -432.7 0L0 0Z" fill="#102043"></path><path d="M0 324.5C-58.8 317.2 -117.5 309.8 -162.2 281C-207 252.2 -237.7 201.9 -262.4 151.5C-287.1 101.1 -305.8 50.5 -324.5 0L0 0Z" fill="#672c76"></path><path d="M0 216.3C-39.2 211.4 -78.3 206.6 -108.2 187.3C-138 168.1 -158.5 134.6 -174.9 101C-191.4 67.4 -203.9 33.7 -216.3 0L0 0Z" fill="#d10f79"></path><path d="M0 108.2C-19.6 105.7 -39.2 103.3 -54.1 93.7C-69 84.1 -79.2 67.3 -87.5 50.5C-95.7 33.7 -101.9 16.8 -108.2 0L0 0Z" fill="#ff0066"></path></g><g transform="translate(0, 600)"><path d="M0 -432.7C76 -421.6 152.1 -410.5 216.3 -374.7C280.6 -338.9 333.1 -278.6 367.2 -212C401.3 -145.4 417 -72.7 432.7 0L0 0Z" fill="#102043"></path><path d="M0 -324.5C57 -316.2 114 -307.8 162.2 -281C210.4 -254.2 249.8 -208.9 275.4 -159C301 -109.1 312.7 -54.5 324.5 0L0 0Z" fill="#672c76"></path><path d="M0 -216.3C38 -210.8 76 -205.2 108.2 -187.3C140.3 -169.5 166.6 -139.3 183.6 -106C200.6 -72.7 208.5 -36.4 216.3 0L0 0Z" fill="#d10f79"></path><path d="M0 -108.2C19 -105.4 38 -102.6 54.1 -93.7C70.1 -84.7 83.3 -69.6 91.8 -53C100.3 -36.4 104.2 -18.2 108.2 0L0 0Z" fill="#ff0066"></path></g></svg>